<svg width="21" height="24" viewBox="0 0 21 24" fill="none" xmlns="http://www.w3.org/2000/svg">
<path d="M8.7109 10.1846C8.04909 10.1846 7.52661 10.7651 7.52661 11.4734C7.52661 12.1816 8.0607 12.7621 8.7109 12.7621C9.37271 12.7621 9.89519 12.1816 9.89519 11.4734C9.9068 10.7651 9.37271 10.1846 8.7109 10.1846ZM12.9488 10.1846C12.287 10.1846 11.7645 10.7651 11.7645 11.4734C11.7645 12.1816 12.2986 12.7621 12.9488 12.7621C13.6106 12.7621 14.1331 12.1816 14.1331 11.4734C14.1331 10.7651 13.6106 10.1846 12.9488 10.1846Z" fill="white"/>
<path d="M18.5901 0.443359H3.0318C1.71979 0.443359 0.651611 1.51154 0.651611 2.83515V18.5328C0.651611 19.8564 1.71979 20.9246 3.0318 20.9246H16.1983L15.5829 18.7766L17.0691 20.1583L18.474 21.4586L20.9703 23.6647V2.83515C20.9703 1.51154 19.9021 0.443359 18.5901 0.443359ZM14.1084 15.6069C14.1084 15.6069 13.6904 15.1076 13.3421 14.6664C14.8631 14.2368 15.4436 13.2847 15.4436 13.2847C14.9676 13.5982 14.5147 13.8188 14.1084 13.9698C13.5278 14.2136 12.9705 14.3761 12.4248 14.469C11.4304 14.6521 10.4106 14.6482 9.41766 14.4574C8.83471 14.3434 8.26341 14.1762 7.71089 13.9582C7.41965 13.8462 7.13645 13.7143 6.86331 13.5634C6.82848 13.5402 6.79365 13.5286 6.75882 13.5053C6.7356 13.4937 6.72398 13.4821 6.71237 13.4705C6.50338 13.3544 6.38728 13.2731 6.38728 13.2731C6.38728 13.2731 6.94459 14.202 8.41914 14.6432C8.07082 15.0844 7.64123 15.6069 7.64123 15.6069C5.07527 15.5256 4.09998 13.8421 4.09998 13.8421C4.09998 10.1034 5.77191 7.07304 5.77191 7.07304C7.44385 5.81909 9.03451 5.85393 9.03451 5.85393L9.15061 5.99325C7.06069 6.59701 6.09701 7.51425 6.09701 7.51425C6.09701 7.51425 6.35244 7.37492 6.78204 7.17754C8.02438 6.63184 9.01128 6.4809 9.41766 6.44607C9.48732 6.43446 9.54537 6.42285 9.61504 6.42285C11.6284 6.15033 13.6761 6.533 15.4552 7.51425C15.4552 7.51425 14.538 6.64345 12.5641 6.0397L12.7267 5.85393C12.7267 5.85393 14.3174 5.81909 15.9893 7.07304C15.9893 7.07304 17.6612 10.1034 17.6612 13.8421C17.6612 13.8421 16.6743 15.5256 14.1084 15.6069V15.6069Z" fill="white"/>
</svg>
