<svg width="24" height="24" viewBox="0 0 24 24" fill="none" xmlns="http://www.w3.org/2000/svg">
<path d="M22.6398 0H1.42132C0.911041 0 0.498779 0.412261 0.498779 0.922543V22.141C0.498779 22.6513 0.911041 23.0636 1.42132 23.0636H22.6398C23.1501 23.0636 23.5624 22.6513 23.5624 22.141V0.922543C23.5624 0.412261 23.1501 0 22.6398 0ZM19.976 6.73168H18.1338C16.6894 6.73168 16.4098 7.41782 16.4098 8.42686V10.6496H19.8578L19.408 14.1293H16.4098V23.0636H12.8147V14.1322H9.80782V10.6496H12.8147V8.08378C12.8147 5.1057 14.6339 3.4826 17.2919 3.4826C18.5662 3.4826 19.6588 3.57774 19.9789 3.62098V6.73168H19.976Z" fill="white"/>
</svg>
