<svg width="28" height="28" viewBox="0 0 28 28" fill="none" xmlns="http://www.w3.org/2000/svg">
<path d="M26.8898 0H1.35625C0.742194 0 0.246094 0.4961 0.246094 1.11015V26.6437C0.246094 27.2577 0.742194 27.7538 1.35625 27.7538H26.8898C27.5038 27.7538 27.9999 27.2577 27.9999 26.6437V1.11015C27.9999 0.4961 27.5038 0 26.8898 0ZM23.0042 7.13621L21.5888 8.49268C21.4639 8.58635 21.4049 8.73899 21.4292 8.88817V18.8691C21.4049 19.0218 21.4639 19.1744 21.5888 19.2646L22.9765 20.6211V20.9229H16.0103V20.635L17.4431 19.2438C17.5853 19.1016 17.5853 19.06 17.5853 18.8483V10.772L13.5957 20.8882H13.058L8.41613 10.772V17.5543C8.3745 17.8388 8.47511 18.1267 8.67632 18.3314L10.5428 20.5899V20.8917H5.24179V20.5899L7.10823 18.3314C7.20657 18.2298 7.27975 18.1066 7.32192 17.9717C7.36409 17.8367 7.37408 17.6938 7.35108 17.5543V9.71385C7.37536 9.49528 7.2921 9.28366 7.12558 9.13448L5.46729 7.13621V6.83438H10.6191L14.5948 15.5595L18.0953 6.84132H23.0042V7.13621Z" fill="white"/>
</svg>
