<svg width="23" height="19" viewBox="0 0 23 19" fill="none" xmlns="http://www.w3.org/2000/svg">
<path d="M22.4889 2.87809C21.6828 3.23527 20.8169 3.47661 19.9065 3.5857C20.8458 3.02365 21.5486 2.13907 21.8836 1.09699C21.0011 1.62117 20.0353 1.99014 19.0281 2.18785C18.3507 1.46466 17.4536 0.985322 16.4759 0.824249C15.4983 0.663177 14.4948 0.829383 13.6213 1.29706C12.7478 1.76475 12.0531 2.50774 11.6451 3.41068C11.2371 4.31362 11.1387 5.32601 11.365 6.29065C9.57684 6.20086 7.82754 5.73609 6.23064 4.92649C4.63373 4.1169 3.2249 2.98057 2.09558 1.59126C1.70943 2.25736 1.4874 3.02965 1.4874 3.85214C1.48697 4.59257 1.6693 5.32165 2.01823 5.97471C2.36716 6.62777 2.87188 7.18461 3.48763 7.59582C2.77353 7.57309 2.07518 7.38014 1.45071 7.03301V7.09093C1.45064 8.12941 1.80986 9.13594 2.46742 9.93972C3.12497 10.7435 4.04037 11.295 5.05828 11.5007C4.39583 11.68 3.7013 11.7064 3.02715 11.5779C3.31434 12.4715 3.87377 13.2529 4.62711 13.8127C5.38046 14.3725 6.29 14.6827 7.22841 14.6999C5.6354 15.9505 3.66804 16.6288 1.64282 16.6258C1.28407 16.6259 0.925629 16.605 0.569336 16.5631C2.62505 17.8848 5.01806 18.5863 7.46203 18.5836C15.7352 18.5836 20.2579 11.7314 20.2579 5.78866C20.2579 5.59558 20.2531 5.40058 20.2444 5.20751C21.1241 4.57131 21.8835 3.7835 22.4869 2.88098L22.4889 2.87809Z" fill="white"/>
</svg>
