<svg width="32" height="11" viewBox="0 0 32 11" fill="none" xmlns="http://www.w3.org/2000/svg">
<path fill-rule="evenodd" clip-rule="evenodd" d="M23.7529 9.20537C23.7529 9.24667 23.6995 9.28797 23.6461 9.28797H23.1431C23.0896 9.28797 21.9098 8.56571 21.9098 8.52441V2.72754C21.9098 2.67592 23.0896 1.75095 23.1431 1.75095H28.0978C29.7672 1.75095 31.1696 2.90732 31.1429 4.27018C31.1162 5.56076 29.7272 6.59323 28.0444 6.59323H23.8598C23.793 6.59323 23.7529 6.6242 23.7529 6.67583V9.20537ZM23.7529 5.08583C23.7529 5.12712 23.793 5.16842 23.8598 5.16842H28.0711C28.7388 5.16842 29.3131 4.74511 29.2998 4.22888C29.2998 3.68167 28.7255 3.17576 28.0978 3.17576H23.8598C23.793 3.17576 23.7529 3.21706 23.7529 3.25836V5.08583ZM7.60509 10.0246H10.116C10.1293 10.0246 10.1427 10.0143 10.1427 10.0143L15.1067 6.63453C15.12 6.6242 15.1468 6.61388 15.1601 6.61388C15.1868 6.61388 15.2002 6.6242 15.2135 6.63453L20.1642 10.0143C20.1709 10.0143 20.1776 10.0169 20.1842 10.0195C20.1909 10.022 20.1976 10.0246 20.2043 10.0246H22.7018C22.7552 10.0246 22.7819 9.973 22.7419 9.95235L16.5491 5.65368C16.509 5.63303 16.509 5.59173 16.5491 5.56076L22.7419 1.02441C22.7819 0.99344 22.7552 0.952141 22.7151 0.952141L20.1776 0.962466C20.5489 0.972791 20.1776 0.952141 20.1776 0.962466L15.2135 4.57991C15.2002 4.59024 15.1868 4.59024 15.1601 4.59024C15.1468 4.59024 15.12 4.59024 15.1067 4.57991L9.68858 0.962466C9.67522 0.952141 9.66186 0.952141 9.64851 0.952141H7.151C7.09758 0.952141 7.08422 0.99344 7.11093 1.02441L13.7711 5.56076C13.7978 5.59173 13.7978 5.63303 13.7711 5.65368L7.57838 9.95235C7.53831 9.973 7.56503 10.0246 7.60509 10.0246ZM8.78207 3.09316L6.90035 1.82323C6.90035 1.82323 6.90035 1.82323 6.80686 1.7716H0.54601C0.45252 1.7716 0.385742 1.82323 0.385742 1.88517V9.14342C0.385742 9.20537 1.05445 9.257 1.14794 9.257H7.01416C7.05423 9.257 7.17636 9.23635 7.18972 9.20537L9.10866 7.93544C9.13537 7.89414 9.08195 7.84251 9.01517 7.84251H2.37573C2.2956 7.84251 2.22882 7.78057 2.22882 7.71862V6.30414C2.22882 6.26284 2.26889 6.23187 2.32231 6.23187H7.5043C7.55773 6.23187 7.59779 6.20089 7.61115 6.16992L8.13202 4.89998C8.14538 4.85868 8.10531 4.80706 8.03853 4.80706H2.32231C2.26889 4.80706 2.22882 4.76576 2.22882 4.72446V3.30998C2.22882 3.24803 2.2956 3.19641 2.37573 3.19641H8.68858C8.75536 3.19641 8.80878 3.14478 8.78207 3.09316Z" fill="url(#paint0_radial_4125_73972)"/>
<defs>
<radialGradient id="paint0_radial_4125_73972" cx="0" cy="0" r="1" gradientUnits="userSpaceOnUse" gradientTransform="translate(15.7983 0.952149) rotate(90) scale(9.07248 25.9354)">
<stop stop-color="#395AAD"/>
<stop offset="1" stop-color="#1A253E"/>
</radialGradient>
</defs>
</svg>
